<?xml version="1.0" standalone="no"?>
<!DOCTYPE svg PUBLIC "-//W3C//DTD SVG 1.1//EN" "http://www.w3.org/Graphics/SVG/1.1/DTD/svg11.dtd" >
<svg xmlns="http://www.w3.org/2000/svg">
<metadata></metadata>
<defs>
<font id="neliosbold" horiz-adv-x="954" >
<font-face units-per-em="2048" ascent="1638" descent="-410" />
<missing-glyph horiz-adv-x="492" />
<glyph horiz-adv-x="0" />
<glyph horiz-adv-x="0" />
<glyph unicode="&#xd;" horiz-adv-x="0" />
<glyph unicode=" "  horiz-adv-x="492" />
<glyph unicode="&#x09;" horiz-adv-x="492" />
<glyph unicode="&#xa0;" horiz-adv-x="492" />
<glyph unicode="!" horiz-adv-x="392" d="M66 264v-264h246v264h-246zM66 1478v-152v-460l48 -480h162q10 120 36 480v612h-246z" />
<glyph unicode="&#x22;" horiz-adv-x="742" d="M70 924h238v532h-238v-134v-398zM664 924v532h-238v-532h238z" />
<glyph unicode="#" horiz-adv-x="932" d="M498 1436h-170q-16 -110 -62 -438h-194v-190h174q-6 -42 -26 -172h-188v-24v-164h168q-14 -112 -60 -448h172q16 112 62 448h136q-14 -112 -58 -448h170q16 112 60 448h154v188h-132q4 44 14 172h166v190h-134q12 108 52 438h-160q-18 -110 -66 -438h-144q16 108 66 438z M528 636h-132q4 44 22 172h134q-6 -42 -24 -172z" />
<glyph unicode="$" horiz-adv-x="1072" d="M84 516v-58q0 -196 88 -320q90 -124 266 -154v-180h184v172q192 14 290 120q100 106 100 284q0 180 -68 258q-68 80 -184 158q-96 64 -286 192q-46 28 -70 64q-26 38 -26 104q0 60 46 92q44 32 104 32q84 0 130 -58t46 -194v-16h268v44q0 200 -88 312q-90 112 -262 132 v178h-184v-178q-152 -24 -246 -122t-94 -256q0 -120 56 -214q54 -94 166 -166q82 -56 250 -164q78 -52 116 -100q36 -50 36 -122q0 -68 -42 -114q-44 -44 -122 -44q-80 0 -144 54q-62 52 -62 206v58h-268z" />
<glyph unicode="%" horiz-adv-x="1636" d="M354 1476q-74 0 -126 -14q-50 -16 -84 -42q-62 -50 -76 -130q-14 -82 -14 -172q0 -50 2 -96q4 -48 14 -88q22 -78 84 -128q62 -48 200 -48q140 0 204 48q62 50 84 128q12 40 14 88q4 46 4 96t-4 96q-2 46 -14 88q-22 76 -84 126q-64 48 -204 48zM358 1334q78 0 94 -60 q16 -58 16 -156q0 -100 -16 -158t-94 -58q-80 0 -96 58q-18 58 -18 158q0 98 18 156q16 60 96 60zM542 0q166 376 660 1506h-138q-164 -378 -660 -1506h138zM1270 750q-138 0 -200 -50q-62 -48 -84 -126q-12 -40 -14 -86q-4 -48 -4 -96q0 -50 4 -98q2 -46 14 -88 q20 -76 84 -126q62 -50 200 -50q76 0 128 16q52 14 84 42q64 50 78 130q14 82 14 174q0 48 -2 94q-4 48 -14 88q-22 78 -84 126q-64 50 -204 50zM1274 606q76 0 94 -58q16 -58 16 -156q0 -100 -16 -160q-16 -58 -94 -58q-80 0 -98 58q-16 60 -16 160q0 98 16 156 q18 58 98 58z" />
<glyph unicode="&#x26;" horiz-adv-x="1310" d="M600 1024q-20 44 -48 96q-30 52 -30 102q0 52 28 72q30 20 66 20t68 -30q30 -30 30 -80q0 -58 -36 -102q-36 -46 -78 -78zM712 842q100 62 162 154q62 94 62 214q0 144 -96 224t-214 80q-122 0 -230 -72q-110 -70 -110 -244q0 -88 36 -166q34 -80 80 -154 q-126 -88 -202 -194q-78 -106 -78 -268q0 -190 114 -316q112 -126 280 -126q104 0 186 24q82 26 158 100q18 -32 54 -98h294q-44 74 -176 294q66 114 98 240t32 256h-220q0 -68 -12 -146q-12 -76 -32 -122q-62 106 -186 320zM756 274q-38 -34 -82 -58t-96 -24q-86 0 -142 74 t-56 154q0 104 50 176q50 70 88 84q80 -136 238 -406z" />
<glyph unicode="'" horiz-adv-x="430" d="M96 924h238v532h-238v-134v-398z" />
<glyph unicode="(" horiz-adv-x="598" d="M544 1526h-174q-152 -228 -218 -464t-66 -458q0 -278 82 -528t202 -442h174q-108 210 -156 456t-48 484q0 312 64 574q62 260 140 378z" />
<glyph unicode=")" horiz-adv-x="600" d="M26 1526q78 -118 142 -378q64 -262 64 -574q0 -238 -48 -484t-158 -456h174q120 192 202 442q84 250 84 528q0 222 -66 458t-220 464h-174z" />
<glyph unicode="*" horiz-adv-x="774" d="M452 1468h-156v-234q-50 20 -202 78q-16 -38 -64 -156q54 -16 216 -62q-30 -46 -124 -184q32 -24 124 -96q30 46 124 188q32 -48 124 -188q36 26 144 110q-36 42 -144 170q54 14 218 62q-14 38 -58 156q-50 -18 -202 -78v234z" />
<glyph unicode="+" horiz-adv-x="998" d="M402 988v-374h-344v-180h344v-364h180v364h344v180h-344v374h-180z" />
<glyph unicode="," horiz-adv-x="334" d="M48 0h150q0 -114 -44 -142t-80 -28v-96h16q92 0 152 78q62 80 62 160v290h-256v-262z" />
<glyph unicode="-" horiz-adv-x="666" d="M72 614v-180h522v180h-522z" />
<glyph unicode="." horiz-adv-x="340" d="M46 0h256v262h-256v-262z" />
<glyph unicode="/" horiz-adv-x="702" d="M26 -168h186q118 412 466 1646h-190q-116 -410 -462 -1646z" />
<glyph unicode="0" horiz-adv-x="1038" d="M522 1478q-170 0 -290 -104q-120 -106 -120 -280v-108v-628q0 -174 120 -284q120 -108 290 -108q184 0 294 106q110 108 110 286v736q0 178 -110 282q-110 102 -294 102zM522 1254q56 0 98 -34q44 -34 44 -100v-778q0 -66 -44 -108q-42 -44 -98 -44q-58 0 -102 40 q-46 38 -46 104v196v588q0 64 46 100q44 36 102 36z" />
<glyph unicode="1" horiz-adv-x="970" d="M458 1452q-24 -104 -114 -180q-92 -74 -256 -74h-34v-50v-148h334v-1000h262v1452h-192z" />
<glyph unicode="2" horiz-adv-x="1034" d="M888 226h-506q16 132 124 230q108 96 222 206q92 90 144 202q50 112 50 228q0 178 -120 282t-290 104q-52 0 -104 -12q-52 -14 -100 -40q-88 -50 -146 -146q-60 -98 -60 -244v-86h262v80q0 128 40 176q38 48 108 48t108 -42q40 -44 40 -142q0 -74 -28 -128t-124 -152 q-32 -32 -78 -70t-96 -88q-92 -90 -170 -224q-80 -134 -80 -332v-76h804v226z" />
<glyph unicode="3" horiz-adv-x="1030" d="M360 668h118q92 0 130 -56q40 -54 40 -192q0 -102 -24 -168q-24 -68 -122 -68q-78 0 -110 60q-32 62 -32 154v50h-248v-84q0 -166 90 -282q88 -116 292 -116q206 0 314 104q110 104 110 342q0 156 -58 250q-56 94 -172 120q98 36 152 112q54 74 54 222q0 172 -104 268 q-104 94 -288 94t-286 -106q-104 -108 -104 -274v-62h248v50q0 84 38 128q36 46 104 46q72 0 102 -40q28 -40 28 -112q0 -46 -8 -102q-10 -56 -50 -94q-22 -20 -54 -34q-34 -12 -82 -12h-78v-198z" />
<glyph unicode="4" horiz-adv-x="1006" d="M494 1452q-102 -224 -410 -896v-264h458v-292h262v292h132v226h-132v934h-310zM542 518h-268q68 150 268 600v-600z" />
<glyph unicode="5" horiz-adv-x="1024" d="M140 1452l-32 -768h252q14 48 50 76q34 28 82 28q74 0 116 -52t42 -156v-154q0 -146 -38 -194q-36 -48 -114 -48q-74 0 -110 52q-38 50 -38 206h-258v-66q0 -200 110 -306q110 -104 308 -104q210 0 306 116q96 118 96 364v142q0 200 -88 312q-90 114 -268 114 q-54 0 -106 -22q-50 -22 -100 -72q6 104 16 312h480v220h-706z" />
<glyph unicode="6" horiz-adv-x="1016" d="M904 1134q0 160 -112 252q-110 92 -290 92q-190 0 -290 -116q-100 -118 -100 -288v-190v-564q0 -188 118 -272q120 -82 270 -82q172 0 288 84t116 268v348q0 160 -86 244q-84 84 -214 84q-58 0 -126 -30q-66 -30 -104 -74v172q0 112 34 154q34 44 100 44q64 0 98 -32 q36 -30 36 -94h262zM508 768q50 0 92 -36t42 -106v-292q0 -76 -40 -112q-40 -38 -102 -38q-64 0 -94 38q-32 36 -32 110v290q0 78 42 112q40 34 92 34z" />
<glyph unicode="7" horiz-adv-x="966" d="M68 1452v-226h568q-44 -78 -86 -170q-42 -94 -82 -200q-72 -194 -126 -416t-78 -440h292q26 408 130 712q104 306 220 532v208h-838z" />
<glyph unicode="8" horiz-adv-x="1036" d="M518 666q72 0 108 -50t36 -144v-80q0 -102 -38 -154q-36 -54 -106 -54q-68 0 -106 52t-38 154v76q0 96 36 148t108 52zM518 1260q70 0 98 -46q30 -46 30 -152q0 -92 -32 -142q-30 -48 -96 -48q-64 0 -96 48q-30 50 -30 142q0 106 30 152t96 46zM312 780 q-82 -48 -140 -132q-60 -84 -60 -232q0 -238 98 -344t306 -106q212 0 310 106t98 344q0 148 -46 234t-144 130q68 38 116 114t48 224q0 188 -110 274q-108 86 -270 86t-270 -86t-108 -274q0 -148 52 -224t120 -114z" />
<glyph unicode="9" horiz-adv-x="1016" d="M516 1478q-172 0 -288 -84t-116 -268v-348q0 -160 86 -244q84 -84 214 -84q58 0 126 30q66 30 104 72v-172q0 -110 -34 -152q-34 -44 -100 -44q-64 0 -98 32q-36 30 -36 94h-262q0 -160 112 -252q110 -92 290 -92q190 0 290 116q100 118 100 288v754q0 188 -120 272 q-118 82 -268 82zM516 1260q64 0 94 -38q32 -36 32 -110v-290q0 -78 -42 -112q-40 -34 -92 -34q-50 0 -92 36t-42 106v292q0 76 40 112q40 38 102 38z" />
<glyph unicode=":" horiz-adv-x="390" d="M68 842h256v262h-256v-262zM68 0h256v262h-256v-262z" />
<glyph unicode=";" horiz-adv-x="390" d="M68 842h256v262h-256v-262zM68 0h152q0 -114 -46 -142q-44 -28 -80 -28v-96h16q92 0 154 78q60 80 60 160v290h-256v-262z" />
<glyph unicode="&#x3c;" horiz-adv-x="942" d="M54 418q210 -110 840 -442v206q-146 82 -588 330q146 82 588 328v222q-210 -112 -840 -454v-48v-142z" />
<glyph unicode="=" horiz-adv-x="988" d="M50 794v-44v-136h886v180h-886zM50 434v-46v-134h886v180h-886z" />
<glyph unicode="&#x3e;" horiz-adv-x="942" d="M88 194v-54v-164q206 114 826 460v190q-206 114 -826 454v-224q144 -80 578 -322q-144 -84 -578 -340z" />
<glyph unicode="?" horiz-adv-x="900" d="M506 398v76q0 92 46 160q46 70 118 140q126 124 146 216q22 94 22 206q0 150 -118 230t-270 80q-168 0 -274 -98t-106 -290v-48h244v48q0 94 36 132q36 36 88 36q58 0 98 -32t40 -106q0 -86 -42 -152q-42 -68 -102 -126q-62 -60 -122 -154q-60 -96 -60 -318h256zM250 0 h256v262h-256v-262z" />
<glyph unicode="@" horiz-adv-x="1996" d="M1190 770q0 -102 -68 -192q-66 -92 -176 -92q-76 0 -118 50q-42 52 -42 132q0 94 68 186q66 90 172 90q72 0 118 -50q46 -48 46 -124zM1252 1010q-46 72 -108 102q-64 30 -140 30q-70 0 -130 -20q-60 -22 -112 -60q-92 -72 -144 -186t-52 -240q0 -144 98 -250t230 -106 q60 0 118 34q58 32 98 78q2 -2 4 -2q4 -56 38 -82q34 -28 78 -28q38 0 94 16q56 14 116 48q114 60 214 188q100 130 100 344q0 102 -32 188q-30 88 -84 160q-100 136 -262 210q-164 76 -344 76q-114 0 -218 -30q-106 -30 -196 -84q-168 -100 -272 -274t-104 -386 q0 -118 32 -222q30 -106 88 -194q106 -166 286 -262t396 -96q192 0 356 84q162 86 270 244h-184q-80 -74 -192 -120q-110 -46 -238 -46q-264 0 -438 168q-174 166 -174 440q0 260 160 436q160 178 424 178q236 0 398 -134t162 -384q0 -168 -76 -264q-74 -98 -156 -98 q-18 0 -24 14t-6 30q0 12 8 62q10 48 38 172q16 66 36 158q22 92 50 216h-180q-6 -26 -26 -108z" />
<glyph unicode="A" horiz-adv-x="1104" d="M10 0h302q22 96 88 386h316q18 -98 70 -386h304q-82 370 -328 1478h-376q-94 -370 -376 -1478zM434 604l136 688l112 -688h-248z" />
<glyph unicode="B" horiz-adv-x="1080" d="M382 1268h152q96 0 134 -48q36 -48 36 -140q0 -96 -40 -148q-42 -54 -134 -54h-148v390zM382 668h182q78 0 116 -60q38 -58 38 -168q0 -124 -38 -176q-38 -54 -116 -54h-182v458zM102 0h566q170 0 254 124q84 122 84 314q0 144 -56 228q-54 84 -164 128q92 20 146 118 q54 100 54 206q0 142 -86 252q-84 108 -280 108h-518v-370v-1108z" />
<glyph unicode="C" horiz-adv-x="1088" d="M996 998v74q0 204 -114 318q-114 116 -330 116q-228 0 -344 -124q-116 -126 -116 -384v-80v-460q0 -126 34 -238q36 -112 130 -178q52 -36 124 -56t168 -20q172 0 268 66t138 172q22 56 32 122t10 136v64h-282v-80q0 -142 -40 -198q-42 -58 -128 -58q-88 0 -128 56 t-40 200v584q0 140 42 194q40 56 128 56q90 0 128 -56q38 -54 38 -194v-32h282z" />
<glyph unicode="D" horiz-adv-x="1146" d="M102 0h512q100 0 172 34q70 36 120 94q92 110 122 280q28 168 28 330v74q0 262 -60 406q-62 142 -158 202q-54 32 -114 46q-62 12 -126 12h-496v-370v-1108zM382 1260h186q114 0 158 -124q44 -122 44 -394q0 -218 -38 -370q-36 -152 -172 -152h-178v260v780z" />
<glyph unicode="E" horiz-adv-x="966" d="M102 1478v-370v-1108h790v226h-510v458h466v226h-466v344h510v224h-790z" />
<glyph unicode="F" horiz-adv-x="922" d="M102 1478v-370v-1108h280v684h470v226h-470v344h496v224h-776z" />
<glyph unicode="G" horiz-adv-x="1138" d="M580 792v-218h186v-98q0 -150 -48 -218t-140 -68q-112 0 -156 84q-44 82 -44 256v470q0 146 48 214q46 66 154 66q94 0 140 -66q46 -64 46 -214h280v40q0 64 -12 124q-10 60 -36 114q-48 98 -148 164q-102 64 -270 64q-242 0 -364 -134q-124 -132 -124 -392v-70v-412 q0 -280 126 -406t294 -126q132 0 200 52q70 52 116 148v-166h218v792h-466z" />
<glyph unicode="H" horiz-adv-x="1136" d="M382 1478h-280v-370v-1108h280v684h372v-684h280v1478h-280v-568h-372v568z" />
<glyph unicode="I" horiz-adv-x="486" d="M382 1478h-280v-370v-1108h280v1478z" />
<glyph unicode="J" horiz-adv-x="924" d="M540 1478v-1144q0 -78 -30 -112q-32 -32 -78 -32q-40 0 -70 26t-30 102v148h-274v-120q0 -206 94 -294q92 -86 280 -86q186 0 288 94t102 258v1160h-282z" />
<glyph unicode="K" horiz-adv-x="1098" d="M382 1478h-280v-370v-1108h280v444q28 36 112 146q62 -148 246 -590h312q-96 210 -386 838q94 160 374 640h-318q-84 -160 -340 -640v640z" />
<glyph unicode="L" horiz-adv-x="940" d="M382 1478h-280v-370v-1108h790v226h-510v1252z" />
<glyph unicode="M" horiz-adv-x="1496" d="M102 1478v-370v-1108h262v1338h2q70 -334 282 -1338h200q70 334 280 1340h2v-1340h262v1478h-448q-50 -240 -196 -960q-50 240 -198 960h-448z" />
<glyph unicode="N" horiz-adv-x="1146" d="M102 1478v-370v-1108h262v524q0 112 -6 278q-6 164 -28 272h2q102 -270 410 -1074h302v1478h-262v-524q0 -126 6 -276t30 -274h-2q-104 268 -410 1074h-304z" />
<glyph unicode="O" horiz-adv-x="1140" d="M92 1000v-538q0 -278 136 -388q136 -108 346 -108q212 0 344 106q130 108 130 390v538q0 282 -130 394q-132 112 -344 112q-210 0 -346 -114t-136 -392zM574 1280q90 0 138 -66q50 -68 50 -186v-600q0 -116 -50 -178q-48 -60 -138 -60q-100 0 -148 62q-48 60 -48 176v604 q0 118 48 184q48 64 148 64z" />
<glyph unicode="P" horiz-adv-x="1114" d="M382 602h246q180 0 288 130q106 132 106 314q0 178 -104 306q-106 126 -286 126h-530v-370v-1108h280v602zM382 1260h142t158 -56q54 -58 54 -162q0 -106 -54 -164q-52 -56 -158 -56h-142v438z" />
<glyph unicode="Q" horiz-adv-x="1150" d="M1126 10q-36 36 -146 140q36 56 52 150q16 92 16 198v502q0 282 -130 394q-132 112 -344 112q-210 0 -346 -114t-136 -392v-78v-456q0 -278 136 -390q136 -110 346 -110q74 0 142 16q66 16 122 42q52 -48 156 -142q32 32 132 128zM574 268q16 -16 68 -62q-12 -6 -32 -12 q-22 -4 -36 -4q-100 0 -148 60q-48 62 -48 178v608q0 118 48 180q48 64 148 64q90 0 138 -68q50 -68 50 -184v-516q0 -46 -2 -94t-4 -58l-44 44q-34 -34 -138 -136z" />
<glyph unicode="R" horiz-adv-x="1148" d="M382 626h206q96 0 132 -64q36 -66 36 -150v-170q0 -70 12 -140q14 -68 56 -102h280v46q-50 0 -58 72q-10 74 -10 174v190q0 80 -40 160q-42 78 -162 104q98 14 160 100t62 250q0 160 -100 272q-100 110 -270 110h-584v-370v-1108h280v626zM382 1260h184q92 0 148 -42 t56 -164q0 -126 -62 -170q-62 -46 -136 -46h-190v422z" />
<glyph unicode="S" horiz-adv-x="1072" d="M964 1012v44q0 224 -114 336q-114 114 -324 114q-192 0 -314 -100t-122 -284q0 -120 56 -214q54 -94 166 -166q82 -56 250 -164q78 -52 116 -100q36 -50 36 -122q0 -68 -42 -118q-44 -48 -124 -48t-142 52q-62 54 -62 208v58h-268v-58q0 -226 118 -356q120 -128 354 -128 q222 0 338 110q118 110 118 304q0 166 -68 252t-184 164l-288 192q-44 28 -68 64q-26 38 -26 104q0 60 46 92q44 32 104 32q84 0 130 -58t46 -194v-16h268z" />
<glyph unicode="T" horiz-adv-x="1050" d="M666 1254h348v224h-978v-28v-196h350v-1254h280v1254z" />
<glyph unicode="U" horiz-adv-x="1140" d="M102 1478v-202v-878q0 -204 112 -314q114 -110 358 -110q246 0 356 112t110 312v1080h-280v-1040q0 -124 -42 -182q-40 -58 -144 -58q-100 0 -144 60q-46 58 -46 180v1040h-280z" />
<glyph unicode="V" horiz-adv-x="1068" d="M24 1478q78 -370 314 -1478h404q72 370 288 1478h-288q-50 -308 -202 -1230h-4q-54 308 -214 1230h-298z" />
<glyph unicode="W" horiz-adv-x="1638" d="M40 1478q60 -370 238 -1478h396q38 258 154 1030h2q38 -258 150 -1030h396q60 370 238 1478h-282q-42 -308 -168 -1234h-2q-46 308 -186 1234h-298q-46 -308 -184 -1234h-2q-42 308 -168 1234h-284z" />
<glyph unicode="X" horiz-adv-x="1124" d="M46 1478q84 -180 342 -718q-90 -190 -358 -760h308l224 544q52 -136 214 -544h314q-94 190 -378 760q92 180 366 718h-316l-200 -480l-192 480h-324z" />
<glyph unicode="Y" horiz-adv-x="1112" d="M22 1478q98 -210 390 -844v-634h280v634q100 212 400 844h-318l-224 -568q-48 142 -196 568h-332z" />
<glyph unicode="Z" horiz-adv-x="1002" d="M90 1478v-218h516q-136 -262 -542 -1050v-52v-158h852v220h-554q136 260 540 1040v218h-812z" />
<glyph unicode="[" horiz-adv-x="556" d="M94 1478v-416v-1242h422v154h-188v1352h174v152h-408z" />
<glyph unicode="\" horiz-adv-x="702" d="M26 1478q116 -410 466 -1646h186q-116 412 -460 1646h-192z" />
<glyph unicode="]" horiz-adv-x="594" d="M78 1478v-152h174v-1352h-188v-40v-114h422v1658h-408z" />
<glyph unicode="^" horiz-adv-x="1052" d="M438 1482q-92 -186 -368 -746q48 -24 194 -98l280 552q68 -138 270 -552q48 26 196 98q-90 186 -356 746h-216z" />
<glyph unicode="_" horiz-adv-x="1054" d="M26 -100v-32v-92h998v124h-998z" />
<glyph unicode="`" horiz-adv-x="652" d="M416 1478h-324q74 -68 296 -278h200q-44 70 -172 278z" />
<glyph unicode="a" horiz-adv-x="976" d="M610 578v-272q0 -76 -42 -112q-40 -36 -100 -36q-58 0 -84 46q-26 44 -26 108q0 38 20 84q18 44 66 76q56 34 166 106zM358 774v22q0 76 40 110q38 34 92 34q58 0 90 -24q30 -24 30 -74q0 -70 -70 -114q-72 -42 -164 -80q-146 -62 -214 -144q-70 -82 -70 -228 q0 -158 82 -234q80 -74 204 -74q102 0 154 36q54 38 90 102q0 -22 4 -54q4 -34 18 -52h264q-22 30 -28 68q-6 40 -6 96v696q0 152 -112 220q-112 66 -274 66q-164 0 -270 -92q-106 -90 -106 -224v-56h246z" />
<glyph unicode="b" d="M480 940q48 0 84 -32t36 -100v-512q0 -66 -36 -98t-84 -32t-88 32q-38 34 -38 104v126v376q0 70 38 104q40 32 88 32zM354 1478h-252v-370v-1108h252v114q24 -62 86 -104t130 -42q114 0 204 76q88 78 88 238v552q0 168 -88 240q-90 72 -204 72q-78 0 -132 -34 q-56 -34 -84 -76v442z" />
<glyph unicode="c" horiz-adv-x="894" d="M812 712v140q0 148 -114 222q-114 72 -238 72q-164 0 -266 -86q-102 -88 -102 -228v-82v-468q0 -140 102 -228q102 -86 266 -86q124 0 238 72q114 74 114 222v170h-252v-158q0 -50 -30 -76q-30 -24 -70 -24q-46 0 -76 28q-30 26 -30 86v538q0 60 30 86q30 28 76 28 q40 0 70 -24q30 -26 30 -76v-128h252z" />
<glyph unicode="d" d="M480 940q48 0 84 -32t36 -100v-512q0 -66 -36 -98t-84 -32t-88 32q-38 34 -38 104v126v376q0 70 38 104q40 32 88 32zM600 1036q-28 42 -82 76q-56 34 -132 34q-116 0 -206 -72q-88 -72 -88 -240v-82v-470q0 -160 88 -238q90 -76 206 -76q66 0 124 40q56 42 90 106v-114 h252v1478h-252v-442z" />
<glyph unicode="e" d="M862 532v260q0 190 -108 272q-110 82 -276 82q-168 0 -278 -82q-108 -80 -108 -272v-68v-402q0 -190 108 -272q110 -82 278 -82q166 0 276 82q108 82 108 272v30h-252v-64q0 -58 -36 -90t-96 -32q-62 0 -98 30q-36 32 -36 92v244h518zM344 716v110q0 60 36 92 q36 30 98 30q60 0 96 -32t36 -90v-110h-266z" />
<glyph unicode="f" horiz-adv-x="542" d="M26 1118v-24v-160h108v-934h252v934h114v184h-114v90q0 44 20 58q22 14 84 14v198h-78q-66 0 -112 -10q-46 -12 -78 -30q-58 -36 -74 -92q-14 -56 -14 -116v-112h-108z" />
<glyph unicode="g" horiz-adv-x="946" d="M464 940q50 0 86 -32t36 -100v-512q0 -66 -36 -98t-86 -32q-46 0 -86 32q-38 34 -38 104v502q0 70 38 104q40 32 86 32zM586 1036q-28 42 -84 76q-54 34 -132 34q-114 0 -204 -72q-88 -72 -88 -240v-82v-470q0 -160 88 -238q90 -76 204 -76q68 0 126 40q56 42 90 106 v-192q0 -54 -36 -82q-34 -28 -90 -28q-50 0 -80 16q-30 18 -40 48h-246q20 -134 112 -198q94 -66 272 -66q196 0 278 88q82 90 82 268v1150h-252v-82z" />
<glyph unicode="h" horiz-adv-x="950" d="M354 1478h-252v-370v-1108h252v802q0 66 32 102t86 36q58 0 90 -36q34 -36 34 -102v-802h252v832q0 168 -82 242q-82 72 -196 72q-78 0 -132 -38q-56 -40 -84 -82v452z" />
<glyph unicode="i" horiz-adv-x="456" d="M102 1226h252v252h-252v-252zM354 1118h-252v-280v-838h252v1118z" />
<glyph unicode="j" horiz-adv-x="456" d="M102 1226h252v252h-252v-252zM102 1118v-1198q0 -60 -16 -78q-18 -18 -46 -18h-34v-26v-168q4 -2 40 -4h56q110 0 180 40q72 42 72 158v1294h-252z" />
<glyph unicode="k" horiz-adv-x="870" d="M354 1478h-252v-370v-1108h252v320q16 28 60 114q38 -108 156 -434h280q-66 166 -264 668q66 112 264 450h-264l-232 -416v776z" />
<glyph unicode="l" horiz-adv-x="456" d="M354 1478h-252v-370v-1108h252v1478z" />
<glyph unicode="m" horiz-adv-x="1426" d="M102 1118v-280v-838h246v796q0 70 32 106q30 38 80 38q64 0 96 -36q34 -36 34 -108v-796h246v796q0 70 30 106q32 38 82 38q64 0 96 -36q34 -36 34 -108v-796h246v914q0 114 -80 174q-80 58 -194 58q-80 0 -146 -38q-66 -36 -96 -92q-32 68 -78 100q-46 30 -140 30 q-84 0 -144 -36q-60 -38 -98 -100v108h-246z" />
<glyph unicode="n" horiz-adv-x="950" d="M354 1118h-252v-280v-838h252v802q0 66 32 102t86 36q58 0 90 -36q34 -36 34 -102v-802h252v832q0 168 -82 242q-82 72 -196 72q-78 0 -132 -38q-56 -40 -84 -82v92z" />
<glyph unicode="o" horiz-adv-x="976" d="M490 1146q-224 0 -312 -108q-86 -110 -86 -256v-66v-384q0 -146 86 -256q88 -108 312 -108q220 0 306 108q88 110 88 256v450q0 146 -88 256q-86 108 -306 108zM490 948q60 0 96 -28q36 -26 36 -104v-516q0 -80 -34 -106q-36 -28 -96 -28q-58 0 -98 28q-40 30 -40 106 v128v388q0 76 38 104q40 28 98 28z" />
<glyph unicode="p" d="M480 940q48 0 84 -32t36 -100v-512q0 -66 -36 -98t-84 -32t-88 32q-38 34 -38 104v126v376q0 70 38 104q40 32 88 32zM102 1118v-374v-1116h252v490q32 -74 88 -112t128 -38q114 0 204 76q88 78 88 238v552q0 168 -88 240q-90 72 -204 72q-66 0 -126 -38t-90 -114v124 h-252z" />
<glyph unicode="q" d="M480 940q48 0 84 -32t36 -100v-512q0 -66 -36 -98t-84 -32t-88 32q-38 34 -38 104v126v376q0 70 38 104q40 32 88 32zM600 1118v-124q-30 76 -90 114q-58 38 -124 38q-116 0 -206 -72q-88 -72 -88 -240v-82v-470q0 -160 88 -238q90 -76 206 -76q58 0 114 38 q58 38 100 112v-490h252v1490h-252z" />
<glyph unicode="r" horiz-adv-x="626" d="M102 1118v-280v-838h252v612q0 62 14 106q12 42 34 68q40 50 100 60q58 10 104 10v278q-102 0 -166 -60t-94 -168h-2v212h-242z" />
<glyph unicode="s" horiz-adv-x="912" d="M82 360v-50q0 -172 108 -258q108 -84 252 -84q38 0 82 2q46 4 92 16q82 20 148 82q66 64 66 198q0 136 -70 218q-72 82 -150 130q-58 38 -176 110q-56 36 -74 64q-20 26 -20 60q0 50 28 74q26 26 80 26t88 -38q34 -40 34 -114v-26h246v22q0 172 -102 264q-102 90 -266 90 q-148 0 -254 -74q-106 -76 -106 -224q0 -108 48 -176t120 -114q68 -44 206 -132q58 -36 86 -74q30 -36 30 -82q0 -56 -38 -80t-88 -24q-52 0 -88 30t-36 104v60h-246z" />
<glyph unicode="t" horiz-adv-x="540" d="M134 1420v-302h-108v-26v-172h108v-720q0 -112 64 -164q64 -50 176 -50q34 0 72 2q36 2 54 6v190q-74 0 -94 24q-20 26 -20 86v626h114v198h-114v302h-252z" />
<glyph unicode="u" horiz-adv-x="958" d="M106 1118v-92v-740q0 -168 82 -244q82 -74 198 -74q80 0 134 38t92 108v-114h240v1118h-252v-808q0 -66 -30 -100q-30 -36 -90 -36t-90 36q-32 36 -32 102v806h-252z" />
<glyph unicode="v" horiz-adv-x="892" d="M14 1118q66 -280 260 -1118h344q66 280 260 1118h-266q-42 -226 -166 -908q-42 228 -166 908h-266z" />
<glyph unicode="w" horiz-adv-x="1270" d="M10 1118q54 -280 216 -1118h304q26 166 100 668h2q26 -168 104 -668h304q54 280 216 1118h-260q-32 -218 -130 -874h-2q-36 218 -142 874h-180q-34 -218 -140 -874h-2q-32 218 -130 874h-260z" />
<glyph unicode="x" horiz-adv-x="866" d="M30 1118q70 -140 280 -558q-74 -140 -294 -560h294q30 80 126 320l128 -320h292q-74 140 -292 560q68 138 278 558h-278q-32 -78 -128 -310q-32 78 -126 310h-280z" />
<glyph unicode="y" horiz-adv-x="888" d="M16 1118q62 -252 108 -440q46 -190 78 -324q62 -252 84 -350q24 -96 24 -104q0 -32 -14 -52q-14 -22 -42 -22h-92v-190q36 -6 66 -6q30 -2 66 -2q114 0 174 46q60 44 94 184q98 420 296 1260h-264q-36 -214 -144 -858h-4q-36 214 -150 858h-280z" />
<glyph unicode="z" horiz-adv-x="794" d="M66 1118v-198h382q-96 -178 -382 -710v-210h680v198h-398q96 180 382 722v198h-664z" />
<glyph unicode="{" horiz-adv-x="602" d="M34 674q106 -38 130 -104q24 -68 24 -130v-374q0 -86 46 -160q46 -72 210 -72q24 0 54 2t64 4q-72 20 -108 76t-36 132v408q0 82 -40 144q-40 64 -92 74q66 36 100 82q32 48 32 116v428q0 48 18 100q20 52 104 84q-16 4 -44 6t-56 2q-94 0 -172 -54q-80 -56 -80 -246 v-332q0 -104 -54 -140t-100 -46z" />
<glyph unicode="|" horiz-adv-x="374" d="M100 0h180v1478h-180v-370v-1108z" />
<glyph unicode="}" horiz-adv-x="602" d="M560 674q-46 10 -100 46t-54 140v332q0 190 -80 246q-78 54 -172 54q-28 0 -56 -2t-44 -6q86 -26 104 -82q18 -54 18 -102v-428q0 -68 32 -116q34 -46 100 -82q-52 -10 -92 -74q-40 -62 -40 -144v-408q0 -76 -36 -132t-108 -76q34 -2 62 -4q30 -2 56 -2q164 0 210 72 q46 74 46 160v374q0 62 24 130q24 66 130 104z" />
<glyph unicode="~" horiz-adv-x="958" d="M140 328q30 46 58 98q26 54 90 54q46 0 104 -32t120 -60q34 -16 70 -26q34 -10 70 -10q72 0 140 56q70 54 126 186q-38 46 -116 140q-40 -80 -78 -114t-72 -34q-24 0 -48 10t-50 26q-50 28 -114 60q-66 32 -158 32q-76 0 -132 -60t-122 -188q38 -46 112 -138z" />
<glyph unicode="&#xa3;" horiz-adv-x="1088" d="M170 -38q62 30 116 46q56 16 106 16q86 0 178 -30q94 -28 196 -28q70 0 132 18q60 18 112 54q-20 76 -60 224q-48 -32 -88 -52q-42 -20 -80 -20q-50 0 -122 22q-72 24 -132 24q-40 0 -92 -14q-54 -12 -104 -44h-2q112 94 168 190q58 96 58 190q0 20 -4 42t-10 44h242v142 h-290q-50 96 -78 164q-26 68 -26 134q0 104 44 158q46 52 122 52q84 0 130 -54q46 -56 46 -170v-36h252v66q0 200 -112 304q-112 102 -316 102q-200 0 -314 -112q-116 -112 -116 -300q0 -96 26 -164q24 -68 70 -144h-128v-142h190q10 -44 14 -80q6 -38 6 -66q0 -92 -56 -184 q-54 -92 -154 -160q26 -64 76 -192z" />
<glyph unicode="&#xa9;" horiz-adv-x="1510" d="M1534 738q0 128 -32 236q-32 110 -90 198q-106 164 -280 250q-176 88 -376 88q-108 0 -210 -26t-192 -76q-166 -90 -270 -262q-106 -170 -106 -408q0 -240 104 -410q106 -172 272 -266q90 -50 192 -74q102 -26 210 -26q200 0 374 86q176 88 282 254q58 88 90 198 q32 108 32 238zM1310 738q0 -176 -72 -308q-74 -134 -192 -208q-64 -40 -138 -62q-74 -20 -152 -20q-80 0 -154 20q-74 22 -138 62q-120 74 -192 208q-72 132 -72 308q0 266 164 430q162 164 392 164q78 0 152 -22t138 -62q118 -74 192 -206q72 -132 72 -304zM968 620 q-6 -72 -56 -108q-50 -34 -126 -34q-94 0 -154 78t-60 192q0 118 54 188q56 72 156 72q66 0 120 -32q52 -32 66 -104h176q-24 156 -124 234q-100 80 -238 80q-196 0 -308 -126q-114 -126 -114 -316q0 -188 116 -316t310 -128q134 0 238 82q104 84 130 238h-186z" />
<glyph unicode="&#xab;" horiz-adv-x="762" d="M722 870q-76 -64 -308 -258v-208q78 -70 308 -282v220q-50 44 -204 178q52 34 204 136v214zM48 612v-208q76 -70 304 -282v220q-50 44 -204 178q50 34 204 136v214q-76 -64 -304 -258z" />
<glyph unicode="&#xad;" horiz-adv-x="666" d="M72 614v-180h522v180h-522z" />
<glyph unicode="&#xae;" horiz-adv-x="1510" d="M626 670h84q48 -88 194 -350h210q-54 90 -212 364q82 6 140 54q60 48 60 164q0 142 -90 196q-90 56 -252 56h-312v-834h178v350zM626 1012h126q50 0 104 -14q56 -14 56 -78q0 -70 -34 -90q-34 -18 -94 -18h-158v200zM1532 736q0 238 -106 410q-104 170 -270 262 q-90 50 -192 76q-100 26 -208 26q-202 0 -376 -88q-176 -88 -282 -252q-56 -88 -88 -198q-32 -108 -32 -236q0 -130 32 -238q32 -110 88 -198q106 -164 282 -252q174 -86 376 -86q108 0 208 24q102 26 192 76q166 92 270 264q106 170 106 410zM1308 736q0 -94 -22 -176 q-22 -84 -62 -150q-76 -128 -200 -200q-124 -70 -268 -70q-150 0 -274 70q-124 72 -198 200q-40 68 -62 150t-22 176q0 266 164 430q162 164 392 164q78 0 152 -22t136 -62q118 -74 192 -206q72 -132 72 -304z" />
<glyph unicode="&#xbb;" horiz-adv-x="772" d="M432 890v-218q46 -36 186 -140q-46 -40 -186 -162v-214q78 66 310 266v200q-78 68 -310 268zM58 672q46 -36 186 -140q-46 -40 -186 -162v-214q76 66 308 266v200q-76 68 -308 268v-218z" />
<glyph unicode="&#x401;" horiz-adv-x="966" d="M102 1478v-370v-1108h790v226h-510v458h466v226h-466v344h510v224h-790zM206 1606h224v222h-224v-222zM584 1606h222v222h-222v-222z" />
<glyph unicode="&#x410;" horiz-adv-x="1104" d="M10 0h302q22 96 88 386h316q18 -98 70 -386h304q-82 370 -328 1478h-376q-94 -370 -376 -1478zM434 604l136 688l112 -688h-248z" />
<glyph unicode="&#x411;" horiz-adv-x="1088" d="M382 684h162q80 0 122 -68q42 -66 42 -176q0 -124 -42 -176q-42 -54 -122 -54h-162v474zM102 1478v-370v-1108h542q166 0 258 130q94 130 94 344q0 54 -14 108q-12 56 -38 106q-46 94 -130 158t-196 64h-236v358h504v210h-784z" />
<glyph unicode="&#x412;" horiz-adv-x="1080" d="M382 1268h152q96 0 134 -48q36 -48 36 -140q0 -96 -40 -148q-42 -54 -134 -54h-148v390zM382 668h182q78 0 116 -60q38 -58 38 -168q0 -124 -38 -176q-38 -54 -116 -54h-182v458zM102 0h566q170 0 254 124q84 122 84 314q0 144 -56 228q-54 84 -164 128q92 20 146 118 q54 100 54 206q0 142 -86 252q-84 108 -280 108h-518v-370v-1108z" />
<glyph unicode="&#x413;" horiz-adv-x="922" d="M102 1478v-370v-1108h280v1254h496v224h-776z" />
<glyph unicode="&#x414;" horiz-adv-x="1276" d="M284 1478v-460q0 -198 -12 -332q-12 -132 -40 -238q-16 -58 -36 -112t-46 -110h-88v-132v-390h270v296h612v-296h270v522h-90v1252h-840zM844 1254v-1028h-416q64 138 98 288q36 148 36 404v336h282z" />
<glyph unicode="&#x415;" horiz-adv-x="966" d="M102 1478v-370v-1108h790v226h-510v458h466v226h-466v344h510v224h-790z" />
<glyph unicode="&#x416;" horiz-adv-x="1672" d="M32 1478l376 -640q-98 -210 -388 -838h314q62 148 246 590q28 -36 110 -146v-444h280v444q28 36 112 146q60 -148 246 -590h312q-96 210 -386 838q94 160 374 640h-318q-84 -160 -340 -640v640h-280v-640q-84 160 -340 640h-318z" />
<glyph unicode="&#x417;" horiz-adv-x="1078" d="M354 1052q0 100 42 164q44 64 126 64q90 0 122 -66q34 -68 34 -140q0 -100 -54 -144q-52 -46 -130 -46h-60v-210h60q88 0 146 -54t58 -184q0 -114 -42 -180q-40 -66 -142 -66q-106 0 -144 64q-38 62 -38 140h-272q0 -84 20 -150q20 -64 54 -112q66 -90 172 -128t224 -38 q220 0 338 110t118 334q0 168 -70 260q-68 92 -178 120q100 26 164 116q62 90 62 206q0 78 -20 140q-22 60 -56 104q-66 82 -168 116t-198 34q-208 0 -324 -130t-116 -324h272z" />
<glyph unicode="&#x418;" horiz-adv-x="1146" d="M102 1478v-370v-1108h304q102 268 410 1074h2q-22 -100 -30 -224q-6 -122 -6 -290v-560h262v1478h-302q-104 -268 -410 -1074h-2q20 92 28 240q6 150 6 282v552h-262z" />
<glyph unicode="&#x419;" horiz-adv-x="1146" d="M102 1478v-370v-1108h304q102 268 410 1074h2q-22 -100 -30 -222q-6 -122 -6 -290v-562h262v1478h-302q-104 -268 -410 -1074h-2q20 92 28 240q6 148 6 280v554h-262zM270 1880q0 -118 58 -212q60 -96 232 -96q178 0 236 96q60 94 60 212h-146q0 -82 -40 -126 q-40 -42 -106 -42q-68 0 -108 42q-40 44 -40 126h-146z" />
<glyph unicode="&#x41a;" horiz-adv-x="1098" d="M382 1478h-280v-370v-1108h280v444q28 36 112 146q62 -148 246 -590h312q-96 210 -386 838q94 160 374 640h-318q-84 -160 -340 -640v640z" />
<glyph unicode="&#x41b;" horiz-adv-x="1210" d="M240 1478v-708q0 -142 -4 -240q-2 -98 -10 -162q-12 -120 -40 -150q-26 -30 -68 -30q-24 0 -50 4q-26 2 -40 6v-20v-186q40 -10 82 -14q40 -4 88 -4q178 0 248 170q70 172 70 542v568h300v-1254h280v1478h-856z" />
<glyph unicode="&#x41c;" horiz-adv-x="1496" d="M102 1478v-370v-1108h262v1338h2q70 -334 282 -1338h200q70 334 280 1340h2v-1340h262v1478h-448q-50 -240 -196 -960q-50 240 -198 960h-448z" />
<glyph unicode="&#x41d;" horiz-adv-x="1136" d="M382 1478h-280v-370v-1108h280v684h372v-684h280v1478h-280v-568h-372v568z" />
<glyph unicode="&#x41e;" horiz-adv-x="1140" d="M92 1000v-538q0 -278 136 -388q136 -108 346 -108q212 0 344 106q130 108 130 390v538q0 282 -130 394q-132 112 -344 112q-210 0 -346 -114t-136 -392zM574 1280q90 0 138 -66q50 -68 50 -186v-600q0 -116 -50 -178q-48 -60 -138 -60q-100 0 -148 62q-48 60 -48 176v604 q0 118 48 184q48 64 148 64z" />
<glyph unicode="&#x41f;" horiz-adv-x="1136" d="M102 1478v-370v-1108h280v1254h372v-1254h280v1478h-932z" />
<glyph unicode="&#x420;" horiz-adv-x="1114" d="M382 602h246q180 0 288 130q106 132 106 314q0 178 -104 306q-106 126 -286 126h-530v-370v-1108h280v602zM382 1260h142t158 -56q54 -58 54 -162q0 -106 -54 -164q-52 -56 -158 -56h-142v438z" />
<glyph unicode="&#x421;" horiz-adv-x="1088" d="M996 998v74q0 204 -114 318q-114 116 -330 116q-228 0 -344 -124q-116 -126 -116 -384v-80v-460q0 -126 34 -238q36 -112 130 -178q52 -36 124 -56t168 -20q172 0 268 66t138 172q22 56 32 122t10 136v64h-282v-80q0 -142 -40 -198q-42 -58 -128 -58q-88 0 -128 56 t-40 200v584q0 140 42 194q40 56 128 56q90 0 128 -56q38 -54 38 -194v-32h282z" />
<glyph unicode="&#x422;" horiz-adv-x="1050" d="M666 1254h348v224h-978v-28v-196h350v-1254h280v1254z" />
<glyph unicode="&#x423;" horiz-adv-x="1110" d="M16 1478q102 -292 406 -1168q-22 -64 -52 -92q-32 -28 -74 -28q-26 0 -46 8q-18 6 -30 8v-214q36 -12 78 -20q42 -6 92 -6q102 0 172 70q72 72 130 246q134 400 402 1196h-308q-56 -196 -226 -784q-58 196 -228 784h-316z" />
<glyph unicode="&#x424;" horiz-adv-x="1546" d="M628 1478v-168h-82t-124 -16t-118 -50q-104 -62 -172 -186t-68 -314q0 -106 20 -188q22 -84 58 -148q68 -118 178 -172q108 -54 226 -54h82v-182h282v182h82q118 0 226 54q110 54 178 172q36 64 58 148q20 82 20 188q0 190 -68 314t-172 186q-56 34 -118 50t-124 16h-82 v168h-282zM628 402h-64q-104 0 -158 88q-56 90 -56 254q0 154 56 252q58 96 158 96h64v-690zM910 1092h64q100 0 158 -96q56 -98 56 -252q0 -164 -56 -254q-54 -88 -158 -88h-64v690z" />
<glyph unicode="&#x425;" horiz-adv-x="1124" d="M46 1478q84 -180 342 -718q-90 -190 -358 -760h308l224 544q52 -136 214 -544h314q-94 190 -378 760q92 180 366 718h-316l-200 -480l-192 480h-324z" />
<glyph unicode="&#x426;" horiz-adv-x="1182" d="M382 1478h-280v-370v-1108h760v-300h262v526h-90v1252h-280v-1252h-372v1252z" />
<glyph unicode="&#x427;" horiz-adv-x="1134" d="M102 1478v-440q0 -182 108 -296t288 -114q68 0 124 4q54 4 114 18v-650h280v1478h-280v-610q-24 -6 -68 -10t-74 -4q-106 0 -158 58q-54 58 -54 164v402h-280z" />
<glyph unicode="&#x428;" horiz-adv-x="1652" d="M1550 0v1478h-280v-1252h-304v1252h-280v-1252h-304v1252h-280v-370v-1108h1448z" />
<glyph unicode="&#x429;" horiz-adv-x="1684" d="M382 1478h-280v-370v-1108h1276v-296h262v522h-90v1252h-280v-1252h-304v1252h-280v-1252h-304v1252z" />
<glyph unicode="&#x42a;" horiz-adv-x="1222" d="M518 684h162q78 0 122 -68q42 -66 42 -176q0 -124 -42 -176q-44 -54 -122 -54h-162v474zM-16 1478v-52v-158h254v-1268h540q168 0 260 130t92 344q0 54 -12 108q-14 56 -38 106q-46 94 -130 158t-196 64h-236v568h-534z" />
<glyph unicode="&#x42b;" horiz-adv-x="1592" d="M382 684h162q80 0 122 -68q42 -66 42 -176q0 -124 -42 -176q-42 -54 -122 -54h-162v474zM382 1478h-280v-370v-1108h542q166 0 258 130q94 130 94 344q0 54 -14 108q-12 56 -38 106q-46 94 -130 158t-196 64h-236v568zM1488 1478h-280v-1478h280v1478z" />
<glyph unicode="&#x42c;" horiz-adv-x="1088" d="M382 684h162q80 0 122 -68q42 -66 42 -176q0 -124 -42 -176q-42 -54 -122 -54h-162v474zM382 1478h-280v-370v-1108h542q166 0 258 130q94 130 94 344q0 54 -14 108q-12 56 -38 106q-46 94 -130 158t-196 64h-236v568z" />
<glyph unicode="&#x42d;" horiz-adv-x="1088" d="M372 1030q0 116 36 182q36 68 134 68q102 0 134 -68q32 -66 32 -182v-120h-234v-226h234v-258q0 -110 -42 -172q-42 -64 -124 -64q-100 0 -134 60q-36 58 -36 168v102h-280v-72q0 -258 112 -370t342 -112q220 0 334 118q116 118 116 376v632q0 180 -112 298 q-110 116 -342 116q-222 0 -336 -116t-114 -298v-62h280z" />
<glyph unicode="&#x42e;" horiz-adv-x="1702" d="M382 1478h-280v-370v-1108h280v684h254v-220q0 -278 140 -388t350 -110q214 0 348 110q136 110 136 392v542q0 282 -136 388q-134 108 -348 108q-210 0 -350 -106t-140 -386v-104h-254v568zM924 442v112v482q0 118 52 180q50 64 150 64q92 0 144 -64q54 -62 54 -180v-594 q0 -116 -54 -184q-52 -68 -144 -68q-100 0 -150 68q-52 68 -52 184z" />
<glyph unicode="&#x42f;" horiz-adv-x="1116" d="M734 602v-602h280v1478h-540q-180 0 -282 -126q-100 -128 -100 -306q0 -140 62 -250q60 -112 170 -162q-96 -210 -288 -634h306q64 150 254 602h138zM734 822h-142t-160 56q-54 58 -54 164q0 104 54 162q54 56 160 56h142v-438z" />
<glyph unicode="&#x430;" horiz-adv-x="976" d="M610 578v-272q0 -76 -42 -112q-40 -36 -100 -36q-58 0 -84 46q-26 44 -26 108q0 38 20 84q18 44 66 76q56 34 166 106zM358 774v22q0 76 40 110q38 34 92 34q58 0 90 -24q30 -24 30 -74q0 -70 -70 -114q-72 -42 -164 -80q-146 -62 -214 -144q-70 -82 -70 -228 q0 -158 82 -234q80 -74 204 -74q102 0 154 36q54 38 90 102q0 -22 4 -54q4 -34 18 -52h264q-22 30 -28 68q-6 40 -6 96v696q0 152 -112 220q-112 66 -274 66q-164 0 -270 -92q-106 -90 -106 -224v-56h246z" />
<glyph unicode="&#x431;" horiz-adv-x="976" d="M306 954q16 150 78 216q60 64 178 96q142 36 202 96q62 58 82 144h-178q-18 -38 -72 -60q-56 -22 -162 -48q-162 -40 -252 -176q-90 -138 -90 -372v-76v-442q0 -146 86 -256q88 -108 312 -108q220 0 306 108q88 110 88 256v402q0 170 -84 266q-84 98 -264 98 q-86 0 -138 -48q-52 -46 -86 -96h-6zM490 166q-58 0 -98 28q-38 30 -38 106v116v350q0 76 40 104q40 30 98 30q60 0 96 -28q34 -28 34 -106v-466q0 -80 -36 -106q-36 -28 -96 -28z" />
<glyph unicode="&#x432;" horiz-adv-x="948" d="M354 934h70q70 0 110 -30t40 -100q0 -66 -40 -98q-40 -30 -110 -30h-70v258zM354 502h84q64 0 110 -40q46 -38 46 -124q0 -94 -46 -124t-110 -30h-84v318zM102 0h426q120 0 224 72q104 70 104 246q0 136 -58 194q-60 58 -130 86q60 24 114 86q54 64 54 172 q0 134 -100 198q-102 64 -218 64h-416v-280v-838z" />
<glyph unicode="&#x433;" horiz-adv-x="788" d="M102 1118v-280v-838h252v920h404v198h-656z" />
<glyph unicode="&#x434;" horiz-adv-x="1058" d="M122 198h-70v-58v-410h236v270h482v-270h238v468h-92v920h-696v-370q0 -226 -24 -338q-22 -114 -74 -212zM664 198h-288q40 90 62 178t22 286v258h204v-722z" />
<glyph unicode="&#x435;" d="M862 532v260q0 190 -108 272q-110 82 -276 82q-168 0 -278 -82q-108 -80 -108 -272v-68v-402q0 -190 108 -272q110 -82 278 -82q166 0 276 82q108 82 108 272v30h-252v-64q0 -58 -36 -90t-96 -32q-62 0 -98 30q-36 32 -36 92v244h518zM344 716v110q0 60 36 92 q36 30 98 30q60 0 96 -32t36 -90v-110h-266z" />
<glyph unicode="&#x436;" horiz-adv-x="1262" d="M504 1118v-416l-232 416h-264q66 -112 264 -450q-66 -168 -264 -668h280q40 108 156 434q16 -28 60 -114v-320h242v320q14 28 58 114q40 -108 156 -434h282q-66 166 -266 668q66 112 266 450h-266q-56 -104 -230 -416v416h-242z" />
<glyph unicode="&#x437;" d="M342 776q6 76 30 124q26 48 94 48q66 0 92 -34t26 -94q0 -66 -28 -104t-104 -38h-52v-184h58q66 0 104 -40t38 -116q0 -84 -30 -128q-32 -44 -112 -44q-78 0 -104 58t-26 130h-246q0 -220 122 -304q120 -82 272 -82q176 0 280 82q106 82 106 246q0 124 -54 198t-148 102 q76 30 126 88q52 60 52 158q0 138 -104 222q-104 82 -268 82q-144 0 -254 -90q-108 -90 -118 -280h248z" />
<glyph unicode="&#x438;" horiz-adv-x="964" d="M102 1118v-280v-838h246q68 164 268 660v-660h246v1118h-244q-68 -166 -270 -668v668h-246z" />
<glyph unicode="&#x439;" horiz-adv-x="964" d="M102 1118v-280v-838h246q68 164 268 660v-660h246v1118h-244q-68 -166 -270 -668v668h-246zM220 1478q0 -100 62 -176t202 -76q138 0 202 66q66 64 66 186h-136q0 -68 -38 -86t-98 -18q-56 0 -94 16t-38 88h-128z" />
<glyph unicode="&#x43a;" horiz-adv-x="870" d="M354 1118h-252v-280v-838h252v320q16 28 60 114q38 -108 156 -434h280q-66 166 -264 668q66 112 264 450h-264l-232 -416v416z" />
<glyph unicode="&#x43b;" horiz-adv-x="1002" d="M194 1118v-426v-212q-2 -86 -6 -144q-8 -106 -30 -132t-68 -26q-12 0 -26 2q-12 2 -30 4v-28v-156q40 -10 72 -16q32 -4 74 -4q112 0 186 98q74 96 74 394v448h208v-920h252v1118h-706z" />
<glyph unicode="&#x43c;" horiz-adv-x="1216" d="M102 1118v-280v-838h246v792h2q44 -198 178 -792h160q44 198 178 792h2v-792h246v1118h-340q-42 -186 -166 -748q-42 188 -166 748h-340z" />
<glyph unicode="&#x43d;" horiz-adv-x="950" d="M354 1118h-252v-280v-838h252v494h242v-494h252v1118h-252v-426h-242v426z" />
<glyph unicode="&#x43e;" horiz-adv-x="976" d="M490 1146q-224 0 -312 -108q-86 -110 -86 -256v-66v-384q0 -146 86 -256q88 -108 312 -108q220 0 306 108q88 110 88 256v450q0 146 -88 256q-86 108 -306 108zM490 948q60 0 96 -28q36 -26 36 -104v-516q0 -80 -36 -106q-36 -28 -96 -28q-58 0 -98 28q-38 30 -38 106 v128v388q0 76 38 104q40 28 98 28z" />
<glyph unicode="&#x43f;" horiz-adv-x="950" d="M102 1118v-280v-838h252v920h242v-920h252v1118h-746z" />
<glyph unicode="&#x440;" d="M480 940q48 0 84 -32t36 -100v-512q0 -66 -36 -98t-84 -32t-88 32q-38 34 -38 104v126v376q0 70 38 104q40 32 88 32zM102 1118v-374v-1116h252v490q32 -74 88 -112t128 -38q114 0 204 76q88 78 88 238v552q0 168 -88 240q-90 72 -204 72q-66 0 -126 -38t-90 -114v124 h-252z" />
<glyph unicode="&#x441;" horiz-adv-x="894" d="M812 712v140q0 148 -114 222q-114 72 -238 72q-164 0 -266 -86q-102 -88 -102 -228v-82v-468q0 -140 102 -228q102 -86 266 -86q124 0 238 72q114 74 114 222v170h-252v-158q0 -50 -30 -76q-30 -24 -70 -24q-46 0 -76 28q-30 26 -30 86v538q0 60 30 86q30 28 76 28 q40 0 70 -24q30 -26 30 -76v-128h252z" />
<glyph unicode="&#x442;" horiz-adv-x="816" d="M20 1118v-26v-172h258v-920h252v920h258v198h-768z" />
<glyph unicode="&#x443;" horiz-adv-x="888" d="M16 1118q62 -252 108 -440q46 -190 78 -324q62 -252 84 -350q24 -96 24 -104q0 -32 -14 -52q-14 -22 -42 -22h-92v-190q36 -6 66 -6q30 -2 66 -2q114 0 174 46q60 44 94 184q98 420 296 1260h-264q-36 -214 -144 -858h-4q-36 214 -150 858h-280z" />
<glyph unicode="&#x444;" horiz-adv-x="1452" d="M852 1478h-252v-484q-30 76 -90 114q-58 38 -124 38q-116 0 -206 -72q-88 -72 -88 -240v-82v-470q0 -160 88 -238q90 -76 206 -76q72 0 126 38q56 38 88 112v-490h252v490q32 -74 88 -112q54 -38 128 -38q114 0 204 76q88 78 88 238v552q0 168 -88 240q-90 72 -204 72 q-68 0 -126 -38q-60 -38 -90 -114v484zM976 940q50 0 86 -32t36 -100v-512q0 -66 -36 -98t-86 -32q-46 0 -86 32q-38 34 -38 104v502q0 70 38 104q40 32 86 32zM480 940q48 0 84 -32t36 -100v-512q0 -66 -36 -98t-84 -32t-88 32q-38 34 -38 104v126v376q0 70 38 104 q40 32 88 32z" />
<glyph unicode="&#x445;" horiz-adv-x="866" d="M30 1118q70 -140 280 -558q-74 -140 -294 -560h294q30 80 126 320l128 -320h292q-74 140 -292 560q68 138 278 558h-278q-32 -78 -128 -310q-32 78 -126 310h-280z" />
<glyph unicode="&#x446;" horiz-adv-x="990" d="M354 1118h-252v-280v-838h598v-270h238v468h-90v920h-252v-920h-242v920z" />
<glyph unicode="&#x447;" horiz-adv-x="940" d="M92 1118v-342q0 -168 82 -244t196 -76q74 0 124 10q50 8 92 26v-492h252v1118h-252v-436q-16 -10 -48 -14t-74 -4q-58 0 -88 36q-32 34 -32 100v318h-252z" />
<glyph unicode="&#x448;" horiz-adv-x="1434" d="M348 1118h-246v-280v-838h1222v1118h-246v-920h-242v920h-246v-920h-242v920z" />
<glyph unicode="&#x449;" horiz-adv-x="1458" d="M348 1118h-246v-280v-838h1072v-272h232v470h-82v920h-246v-920h-242v920h-246v-920h-242v920z" />
<glyph unicode="&#x44a;" horiz-adv-x="1050" d="M458 494h82q64 0 110 -32q46 -30 46 -114q0 -94 -46 -122q-48 -28 -110 -28h-82v296zM458 1118h-450v-50v-148h198v-920h414q120 0 230 86q108 86 108 262t-108 260q-106 84 -230 84h-162v426z" />
<glyph unicode="&#x44b;" horiz-adv-x="1370" d="M354 494h82q64 0 110 -32q46 -30 46 -114q0 -94 -48 -122q-46 -28 -108 -28h-82v296zM354 1118h-252v-280v-838h414q120 0 228 86q110 86 110 262t-108 260t-230 84h-162v426zM1268 1118h-252v-1118h252v1118z" />
<glyph unicode="&#x44c;" horiz-adv-x="946" d="M354 494h82q64 0 110 -32q46 -30 46 -114q0 -94 -48 -122q-46 -28 -108 -28h-82v296zM354 1118h-252v-280v-838h414q120 0 228 86q110 86 110 262t-108 260t-230 84h-162v426z" />
<glyph unicode="&#x44d;" horiz-adv-x="904" d="M344 748v92q0 50 30 76q28 24 68 24q46 0 76 -28q30 -26 30 -86v-134h-158v-198h158v-206q0 -60 -30 -86q-30 -28 -76 -28q-40 0 -68 24q-30 26 -30 76v124h-252v-136q0 -148 114 -222q114 -72 236 -72q164 0 266 86q104 88 104 228v550q0 140 -104 228q-102 86 -266 86 q-122 0 -236 -72q-114 -74 -114 -222v-104h252z" />
<glyph unicode="&#x44e;" horiz-adv-x="1438" d="M354 1118h-252v-280v-838h252v494h198v-162q0 -146 88 -256q86 -108 310 -108q220 0 308 108q88 110 88 256v450q0 146 -88 256q-88 108 -308 108q-224 0 -310 -108q-88 -110 -88 -256v-90h-198v426zM950 948q62 0 98 -28q36 -26 36 -104v-516q0 -80 -36 -106 q-36 -28 -98 -28q-58 0 -96 28q-38 30 -38 106v516q0 76 38 104t96 28z" />
<glyph unicode="&#x44f;" horiz-adv-x="946" d="M592 616h-108q-64 0 -96 40q-34 40 -34 114q0 78 40 118q40 38 100 38h98v-310zM592 424v-424h252v1118h-414q-120 0 -228 -86q-110 -86 -110 -262q0 -110 44 -184t124 -120q-68 -154 -204 -466h272q42 106 166 424h98z" />
<glyph unicode="&#x451;" d="M862 532v260q0 190 -108 272q-110 82 -276 82q-168 0 -278 -82q-108 -80 -108 -272v-68v-402q0 -190 108 -272q110 -82 278 -82q166 0 276 82q108 82 108 272v30h-252v-64q0 -58 -36 -90t-96 -32q-62 0 -98 30q-36 32 -36 92v244h518zM344 716v110q0 60 36 92 q36 30 98 30q60 0 96 -32t36 -90v-110h-266zM188 1256h224v222h-224v-222zM550 1256h224v222h-224v-222z" />
<glyph unicode="&#x2000;" horiz-adv-x="940" />
<glyph unicode="&#x2001;" horiz-adv-x="1880" />
<glyph unicode="&#x2002;" horiz-adv-x="940" />
<glyph unicode="&#x2003;" horiz-adv-x="1880" />
<glyph unicode="&#x2004;" horiz-adv-x="626" />
<glyph unicode="&#x2005;" horiz-adv-x="470" />
<glyph unicode="&#x2006;" horiz-adv-x="313" />
<glyph unicode="&#x2007;" horiz-adv-x="313" />
<glyph unicode="&#x2008;" horiz-adv-x="235" />
<glyph unicode="&#x2009;" horiz-adv-x="376" />
<glyph unicode="&#x200a;" horiz-adv-x="104" />
<glyph unicode="&#x2010;" horiz-adv-x="666" d="M72 614v-180h522v180h-522z" />
<glyph unicode="&#x2011;" horiz-adv-x="666" d="M72 614v-180h522v180h-522z" />
<glyph unicode="&#x2012;" horiz-adv-x="666" d="M72 614v-180h522v180h-522z" />
<glyph unicode="&#x2013;" horiz-adv-x="816" d="M54 614v-44v-136h706v180h-706z" />
<glyph unicode="&#x2014;" horiz-adv-x="1412" d="M54 614v-44v-136h1312v180h-1312z" />
<glyph unicode="&#x2018;" horiz-adv-x="490" d="M370 1204h-150q0 114 44 142t80 28v96h-16q-92 0 -152 -78q-62 -80 -62 -160v-290h256v262z" />
<glyph unicode="&#x2019;" horiz-adv-x="474" d="M112 1216h152q0 -114 -44 -142q-46 -28 -80 -28v-96h16q92 0 152 80q60 78 60 158v290h-256v-262z" />
<glyph unicode="&#x201a;" horiz-adv-x="334" d="M48 0h150q0 -114 -44 -142t-80 -28v-96h16q92 0 152 78q62 80 62 160v290h-256v-262z" />
<glyph unicode="&#x201c;" horiz-adv-x="880" d="M370 1204h-150q0 114 44 142t80 28v96h-16q-92 0 -152 -78q-62 -80 -62 -160v-290h256v262zM776 1204h-152q0 114 46 142q44 28 80 28v96h-16q-92 0 -154 -78q-60 -80 -60 -160v-290h256v262z" />
<glyph unicode="&#x201d;" horiz-adv-x="880" d="M530 1216h152q0 -114 -44 -142q-46 -28 -80 -28v-96h16q92 0 152 80q60 78 60 158v290h-256v-262zM124 1216h152q0 -114 -44 -142q-46 -28 -80 -28v-96h16q92 0 152 80q60 78 60 158v290h-256v-262z" />
<glyph unicode="&#x201e;" horiz-adv-x="868" d="M112 0h152q0 -114 -44 -142q-46 -28 -80 -28v-96h16q92 0 152 78q60 80 60 160v290h-256v-262zM500 0h152q0 -114 -46 -142q-44 -28 -80 -28v-96h16q92 0 154 78q60 80 60 160v290h-256v-262z" />
<glyph unicode="&#x2022;" horiz-adv-x="1088" d="M546 1118q-156 0 -266 -110t-110 -266q0 -158 110 -270t266 -112q158 0 270 112t112 270q0 156 -112 266t-270 110z" />
<glyph unicode="&#x2026;" horiz-adv-x="1638" d="M1308 0h256v262h-256v-262zM56 0h256v262h-256v-262zM682 0h256v262h-256v-262z" />
<glyph unicode="&#x202f;" horiz-adv-x="376" />
<glyph unicode="&#x2039;" horiz-adv-x="382" d="M342 870q-76 -64 -304 -258v-26v-182q76 -70 304 -282v220q-50 44 -198 178q50 34 198 136v214z" />
<glyph unicode="&#x203a;" horiz-adv-x="382" d="M38 870v-28v-186l200 -136q-50 -44 -200 -178v-220q76 72 304 282v208q-76 64 -304 258z" />
<glyph unicode="&#x205f;" horiz-adv-x="470" />
<glyph unicode="&#x20ac;" horiz-adv-x="1038" d="M958 1412q-30 20 -106 44q-76 22 -180 22q-214 0 -332 -130q-118 -132 -152 -364h-92q-14 -50 -60 -196h136q-2 -14 -2 -28q-2 -14 -2 -28q0 -20 2 -38q0 -16 2 -28h-76q-14 -50 -60 -198h154q38 -262 162 -382q126 -118 320 -118q114 0 188 20q72 20 98 40v254 q-34 -32 -94 -56q-62 -26 -154 -26q-116 0 -184 68q-70 66 -88 200h300q14 50 58 198h-380q-2 12 -2 30v36v30t2 26h422q14 50 62 196h-462q18 132 86 196q66 66 184 66q96 0 158 -26q60 -26 92 -56v248z" />
<glyph unicode="&#x2116;" horiz-adv-x="1768" d="M1702 506v332q0 92 -78 142t-170 50q-88 0 -166 -50q-78 -48 -78 -142v-332q0 -94 78 -142t166 -48q92 0 170 48q78 50 78 142zM1550 818v-294q0 -44 -28 -68q-30 -22 -68 -22q-36 0 -64 22q-28 24 -28 68v294q0 44 28 68q28 26 64 26q38 0 68 -26q28 -24 28 -68z M1210 208v-120h500v120h-500zM82 1478v-264v-1214h262v524q0 112 -6 276t-28 274h2q102 -270 408 -1074h304v1478h-262v-524q0 -126 6 -276t28 -274h-2q-102 268 -408 1074h-304z" />
<glyph unicode="&#x2122;" horiz-adv-x="1598" d="M266 696h152v666h236v148h-628v-38v-110h240v-666zM734 1510v-814h150v642h2q56 -160 218 -642h94q52 160 204 642h2v-642h152v814h-250q-38 -122 -156 -484q-38 120 -158 484h-258z" />
<glyph unicode="&#x25fc;" horiz-adv-x="1120" d="M0 1120h1120v-1120h-1120v1120z" />
</font>
</defs>
</svg>
